<svg xmlns="http://www.w3.org/2000/svg" xmlns:xlink="http://www.w3.org/1999/xlink" viewBox="0 0 2000 2000"><defs><style>.cls-1{fill:none;}.cls-14,.cls-2{fill:#1d1d1b;}.cls-3{fill:#cf1d17;}.cls-4{fill:#e8530e;}.cls-5{fill:#f8e411;}.cls-6{fill:#c29e1c;}.cls-7{isolation:isolate;}.cls-8,.cls-9{mix-blend-mode:darken;}.cls-8{fill:url(#New_Pattern);}.cls-9{fill:url(#radial-gradient);}.cls-10,.cls-12,.cls-13,.cls-14,.cls-15,.cls-17,.cls-18,.cls-19,.cls-20,.cls-21{stroke:#1d1d1b;stroke-width:12px;}.cls-10,.cls-14,.cls-15,.cls-17,.cls-18,.cls-19,.cls-20,.cls-21{stroke-miterlimit:10;}.cls-10{fill:url(#New_Pattern_5);}.cls-11{opacity:0.59;fill:url(#linear-gradient);}.cls-11,.cls-16{mix-blend-mode:overlay;}.cls-12{fill:#fff;}.cls-12,.cls-13{stroke-linejoin:round;}.cls-13{fill:#ffec00;}.cls-15{fill:url(#New_Pattern_4);}.cls-17{fill:url(#linear-gradient-2);}.cls-18{fill:url(#linear-gradient-3);}.cls-19{fill:url(#linear-gradient-4);}.cls-20{fill:url(#linear-gradient-5);}.cls-21{fill:url(#linear-gradient-6);}</style><pattern id="New_Pattern" data-name="New Pattern" width="10.27" height="10.27" patternTransform="translate(-125.38 82.85)" patternUnits="userSpaceOnUse" viewBox="0 0 10.27 10.27"><rect class="cls-1" width="10.27" height="10.27"/><circle class="cls-2" cx="5.13" cy="5.13" r="3.46"/></pattern><radialGradient id="radial-gradient" cx="1048.51" cy="1058.75" r="1077.35" gradientTransform="translate(-44.25 698.04) rotate(-6.07) scale(1 0.45)" gradientUnits="userSpaceOnUse"><stop offset="0.6" stop-color="#1d1d1b"/><stop offset="0.65" stop-color="#31312f"/><stop offset="0.75" stop-color="#656564"/><stop offset="0.89" stop-color="#b8b8b7"/><stop offset="1" stop-color="#fff"/></radialGradient><pattern id="New_Pattern_5" data-name="New Pattern 5" width="10.27" height="10.27" patternTransform="translate(-40.19 -174.49) scale(3.47)" patternUnits="userSpaceOnUse" viewBox="0 0 10.27 10.27"><rect class="cls-1" width="10.27" height="10.27"/><rect class="cls-5" width="10.27" height="10.27"/><circle class="cls-6" cx="5.13" cy="5.13" r="3.46"/></pattern><linearGradient id="linear-gradient" x1="998.51" y1="1447.48" x2="998.51" y2="1103.59" gradientUnits="userSpaceOnUse"><stop offset="0" stop-color="#baad16"/><stop offset="1" stop-color="#fff"/></linearGradient><pattern id="New_Pattern_4" data-name="New Pattern 4" width="10.27" height="10.27" patternTransform="translate(-7.84 -186.5) scale(3.47)" patternUnits="userSpaceOnUse" viewBox="0 0 10.27 10.27"><rect class="cls-1" width="10.27" height="10.27"/><rect class="cls-3" width="10.27" height="10.27"/><circle class="cls-4" cx="5.13" cy="5.13" r="3.46"/></pattern><linearGradient id="linear-gradient-2" x1="445.91" y1="634.91" x2="414.11" y2="1235.59" gradientUnits="userSpaceOnUse"><stop offset="0" stop-color="#e20613"/><stop offset="1" stop-color="#fff"/></linearGradient><linearGradient id="linear-gradient-3" x1="734.2" y1="650.18" x2="702.4" y2="1250.86" xlink:href="#linear-gradient-2"/><linearGradient id="linear-gradient-4" x1="1016.97" y1="665.15" x2="985.17" y2="1265.83" xlink:href="#linear-gradient-2"/><linearGradient id="linear-gradient-5" x1="1343.88" y1="682.45" x2="1312.08" y2="1283.13" xlink:href="#linear-gradient-2"/><linearGradient id="linear-gradient-6" x1="1662.07" y1="699.3" x2="1630.27" y2="1299.98" xlink:href="#linear-gradient-2"/></defs><title>logo</title><g class="cls-7"><g id="Layer_1" data-name="Layer 1"><polygon class="cls-8" points="986.81 677.36 1121.42 539.94 1230.79 691.38 1450.47 553.97 1558.9 708.21 1816.91 587.62 1816.91 790.26 1945.91 764.86 1895.43 894.22 1957.13 1060.29 1693.51 1131.25 1864.58 1305.35 1600.97 1398.08 1614.1 1600 1219.43 1326.46 1129.84 1521.47 969.99 1432.73 877.36 1569.15 742.83 1339.19 526.89 1619.63 411.92 1360.36 139.89 1406.41 330.82 1113.84 159.52 1044.36 383.87 952.52 301.61 702.6 554.01 829.77 574.57 539.94 863.42 691.38 885.73 497.88 986.81 677.36"/><polygon class="cls-9" points="986.81 677.36 1121.42 539.94 1230.79 691.38 1450.47 553.97 1558.9 708.21 1816.91 587.62 1816.91 790.26 1945.91 764.86 1895.43 894.22 1957.13 1060.29 1693.51 1131.25 1864.58 1305.35 1600.97 1398.08 1614.1 1600 1219.43 1326.46 1129.84 1521.47 969.99 1432.73 877.36 1569.15 742.83 1339.19 526.89 1619.63 411.92 1360.36 139.89 1406.41 330.82 1113.84 159.52 1044.36 383.87 952.52 301.61 702.6 554.01 829.77 574.57 539.94 863.42 691.38 885.73 497.88 986.81 677.36"/><polygon class="cls-10" points="936.81 637.36 1071.42 499.94 1180.79 651.38 1400.47 513.97 1508.9 668.21 1766.91 547.62 1766.91 750.26 1895.91 724.86 1845.43 854.22 1907.13 1020.29 1643.51 1091.25 1814.58 1265.35 1550.97 1358.08 1564.1 1560 1169.43 1286.46 1079.84 1481.47 919.99 1392.73 827.36 1529.15 692.83 1299.19 476.89 1579.63 361.92 1320.36 89.89 1366.41 280.82 1073.84 109.52 1004.36 333.87 912.52 251.61 662.6 504.01 789.77 524.57 499.94 813.42 651.38 835.73 457.88 936.81 637.36"/><polygon class="cls-11" points="936.81 637.36 1071.42 499.94 1180.79 651.38 1400.47 513.97 1508.9 668.21 1766.91 547.62 1766.91 750.26 1895.91 724.86 1845.43 854.22 1907.13 1020.29 1643.51 1091.25 1814.58 1265.35 1550.97 1358.08 1564.1 1560 1169.43 1286.46 1079.84 1481.47 919.99 1392.73 827.36 1529.15 692.83 1299.19 476.89 1579.63 361.92 1320.36 89.89 1366.41 280.82 1073.84 109.52 1004.36 333.87 912.52 251.61 662.6 504.01 789.77 524.57 499.94 813.42 651.38 835.73 457.88 936.81 637.36"/><polygon class="cls-12" points="1347.7 494.89 1013.73 912.52 1476.04 461.23 1347.7 494.89"/><polygon class="cls-12" points="1576.54 547.88 1476.04 461.23 1013.73 912.52 1576.54 547.88"/><polygon class="cls-12" points="1327.38 260.88 1013.73 912.52 1399.05 372.54 1327.38 260.88"/><polygon class="cls-12" points="1347.7 494.89 1399.05 372.54 1013.73 912.52 1347.7 494.89"/><polygon class="cls-12" points="456.03 306.14 1035.19 1018.75 567.93 401.58 456.03 306.14"/><polygon class="cls-12" points="812.55 530.59 1035.19 1018.75 678.11 470.94 812.55 530.59"/><polygon class="cls-12" points="876.39 278.17 778.11 387.6 1035.19 1018.75 876.39 278.17"/><polygon class="cls-12" points="812.55 530.59 778.11 387.6 1035.19 1018.75 812.55 530.59"/><polygon class="cls-12" points="552.75 547.88 1035.19 1018.75 678.11 470.94 552.75 547.88"/><polygon class="cls-12" points="1787.14 1650.06 1169.43 1072.28 1655.06 1582.37 1787.14 1650.06"/><polygon class="cls-12" points="1635.93 1435.19 1169.43 1072.28 1530.75 1539.89 1635.93 1435.19"/><polygon class="cls-12" points="1384.86 1512.6 1169.43 1072.28 1530.75 1539.89 1384.86 1512.6"/><polygon class="cls-12" points="1380.89 1775.3 1169.43 1072.28 1451.93 1644.99 1380.89 1775.3"/><polygon class="cls-12" points="529.2 1646.07 930.02 982.39 633.53 1566.34 529.2 1646.07"/><polygon class="cls-12" points="627 1435.19 930.02 982.39 735.07 1509.78 627 1435.19"/><polygon class="cls-12" points="857.78 1463.05 735.07 1509.78 930.02 982.39 857.78 1463.05"/><polygon class="cls-12" points="902.61 1691.14 930.02 982.39 820.24 1588.88 902.61 1691.14"/><polygon class="cls-13" points="656.04 139.45 729.75 266.73 876.39 278.17 778.11 387.6 812.55 530.59 678.11 470.94 552.75 547.88 567.93 401.58 456.03 306.14 599.85 275.37 656.04 139.45"/><polygon class="cls-13" points="1543.66 169.24 1574.03 298.4 1697.64 346.62 1584.18 415.41 1576.54 547.88 1476.04 461.23 1347.7 494.89 1399.05 372.54 1327.38 260.88 1459.61 271.91 1543.66 169.24"/><polygon class="cls-13" points="699.53 1804.25 655.95 1680.39 529.2 1646.07 633.53 1566.34 627 1435.19 735.07 1509.78 857.78 1463.05 820.24 1588.88 902.61 1691.14 771.34 1694.32 699.53 1804.25"/><polygon class="cls-13" points="1380.89 1775.3 1451.93 1644.99 1384.86 1512.6 1530.75 1539.89 1635.93 1435.19 1655.06 1582.37 1787.14 1650.06 1653.07 1713.72 1629.51 1860.26 1527.54 1752.42 1380.89 1775.3"/><path class="cls-14" d="M260,927.93l108-67.31q17.48,132.91,38.18,239.58L453.81,1068l-44.3-200.85,108-67.32q37.81,283.93,93.22,470.69L514,1342.1l-40.53-182.57q-16.06,10.92-48.79,33,19.45,82.1,36.64,138.78l-96.79,71.53Z"/><path class="cls-14" d="M721.5,893.54q-2,20.37-2.68,39.81l-0.92,38.13,102.9-41.32,10.06,93.24q-73.65,26.6-115.22,44.15-0.33,13.83,0,27.54L715.17,1122l121.12-39.68,13,125.73q-94.78,24.76-235.75,88.54l-3.91-492.7,216.74-71.49L839.21,858Q774.77,875.36,721.5,893.54Z"/><path class="cls-14" d="M917.56,769q106-33.2,173.81-34.06,91.51-1.16,91.64,62.57,0.47,91.52-112.91,185.16,9.81,25.65,80.68,161-34.67,33-104.7,96.92l-74.55-186.18-0.68.16-0.87-.14q-15,89-22.11,164.29L840.93,1250q1.18-14.92,13.77-90.34Zm86.76,106q-5.81,23.13-10.26,46.23l-8.91,46.21a245.15,245.15,0,0,0,46.37-32.45q26.15-23.37,34.69-44.51a23.88,23.88,0,0,0,3.24-11.57q-0.19-14.9-19.85-14.66Q1034,864.51,1004.32,875.06Z"/><path class="cls-14" d="M1462.58,763q70.56,13.58,84.74,97.77,7.49,43.56-1.85,92.15-9,46.6-33.45,98.5-42.57,88.47-118.26,155.36-92.34,81.64-174.89,65.76-71.24-13.71-86.07-98-7.21-41.42,2-89.36,9.09-47.26,34.37-99.7,42.68-89.13,117.72-156.15Q1379.36,747,1462.58,763Zm-55.73,160.48q-36.62-7-86.09,45.57-39.73,41.38-60.41,84.33-10.6,22.81-14.32,42.12-5.25,27.3,4.73,47.16,11.59,22.26,38.89,27.5,37.27,7.17,74.79-26.34,30-26.67,48.84-67.23,22.25-47.5,24.29-97.5Q1438.8,929.59,1406.84,923.44Z"/><path class="cls-14" d="M1532.54,1225q23,6.6,35.6,23.35,15.37,18.76,6,39.8-12.73,28.47-53.57,38.42-31.83,8-61.33-.69-23.66-6.87-36.15-22.11-14.75-18.47-5.35-39.52,12.73-28.46,52.61-39.59Q1502.4,1216,1532.54,1225Zm242.08-353.65,119.65,79.5q-92.62,69.24-140,110.42-64.64,56.5-127.09,128.08l-84.36-42.18Z"/><path class="cls-15" d="M248.71,916.59l108-67.31q17.48,132.91,38.18,239.58l47.56-32.16-44.3-200.85,108-67.32q37.81,283.93,93.22,470.69l-96.79,71.53-40.53-182.57q-16.06,10.92-48.79,33,19.45,82.1,36.64,138.78l-96.79,71.53Z"/><path class="cls-15" d="M710.16,882.2q-2,20.37-2.68,39.81l-0.92,38.13,102.9-41.32,10.06,93.24q-73.65,26.6-115.22,44.15-0.33,13.83,0,27.54l-0.47,26.89,121.12-39.68,13,125.73q-94.78,24.76-235.75,88.54l-3.91-492.7L815,721l12.89,125.6Q763.44,864,710.16,882.2Z"/><path class="cls-15" d="M906.22,757.7q106-33.2,173.81-34.06,91.51-1.16,91.64,62.57,0.47,91.52-112.91,185.16,9.81,25.65,80.68,161-34.67,33-104.7,96.92l-74.55-186.18-0.68.16-0.87-.14q-15,89-22.11,164.29l-106.95,31.25q1.18-14.92,13.77-90.34Zm86.76,106q-5.81,23.13-10.26,46.23l-8.91,46.21a245.15,245.15,0,0,0,46.37-32.45q26.15-23.37,34.69-44.51a23.88,23.88,0,0,0,3.24-11.57q-0.19-14.9-19.85-14.66Q1022.67,853.18,993,863.72Z"/><path class="cls-15" d="M1451.24,751.62q70.56,13.58,84.74,97.77,7.49,43.56-1.85,92.15-9,46.6-33.45,98.5-42.57,88.47-118.26,155.36-92.34,81.64-174.89,65.76-71.24-13.71-86.07-98-7.21-41.42,2-89.36,9.09-47.26,34.37-99.7,42.68-89.13,117.72-156.15Q1368,735.62,1451.24,751.62ZM1395.5,912.1q-36.62-7-86.09,45.57Q1269.69,999.05,1249,1042q-10.6,22.81-14.32,42.12-5.25,27.3,4.73,47.16,11.59,22.26,38.89,27.5,37.27,7.17,74.79-26.34,30-26.67,48.84-67.23,22.25-47.5,24.29-97.5Q1427.46,918.25,1395.5,912.1Z"/><path class="cls-15" d="M1521.2,1213.69q23,6.6,35.6,23.35,15.37,18.76,6,39.8-12.73,28.47-53.57,38.42-31.83,8-61.33-.69-23.66-6.87-36.15-22.11-14.75-18.47-5.35-39.52,12.73-28.46,52.61-39.59Q1491.06,1204.68,1521.2,1213.69ZM1763.28,860l119.65,79.5q-92.62,69.24-140,110.42-64.64,56.5-127.09,128.08l-84.36-42.18Z"/><g class="cls-16"><path class="cls-14" d="M257.85,929.16l108-67.31Q383.35,994.76,404,1101.43l47.57-32.15-44.3-200.85,108-67.31q37.8,283.93,93.21,470.69l-96.79,71.53-40.53-182.57q-16.06,10.92-48.79,33,19.45,82.1,36.64,138.78l-96.79,71.53Z"/><path class="cls-14" d="M719.33,894.78q-2,20.37-2.68,39.81l-0.92,38.12,102.9-41.32,10.06,93.24q-73.65,26.6-115.22,44.15-0.33,13.83,0,27.54L713,1123.21l121.12-39.69,13,125.74Q752.3,1234,611.33,1297.8l-3.92-492.7,216.74-71.49L837,859.2Q772.6,876.6,719.33,894.78Z"/><path class="cls-14" d="M915.32,770.29q106-33.2,173.81-34.07,91.51-1.16,91.64,62.57,0.48,91.52-112.91,185.16,9.81,25.65,80.69,161-34.67,33-104.7,96.92l-74.55-186.18-0.68.16-0.87-.14q-15,89-22.11,164.29L838.7,1251.26q1.18-14.92,13.77-90.34Zm86.77,106q-5.81,23.13-10.26,46.23l-8.91,46.21a245.22,245.22,0,0,0,46.37-32.45q26.15-23.37,34.69-44.51a23.9,23.9,0,0,0,3.24-11.57q-0.19-14.9-19.85-14.66Q1031.77,865.76,1002.09,876.31Z"/><path class="cls-14" d="M1460.38,764.21q70.56,13.58,84.74,97.77,7.49,43.56-1.85,92.15-9,46.6-33.45,98.5-42.57,88.47-118.26,155.36-92.34,81.65-174.89,65.76-71.24-13.71-86.07-98-7.21-41.42,2-89.36,9.09-47.26,34.37-99.7,42.68-89.12,117.72-156.15Q1377.16,748.21,1460.38,764.21ZM1404.64,924.7q-36.62-7-86.09,45.56-39.72,41.38-60.41,84.34-10.61,22.81-14.32,42.12-5.26,27.31,4.73,47.17,11.59,22.26,38.89,27.5,37.27,7.17,74.79-26.34,30-26.67,48.83-67.23,22.24-47.5,24.28-97.5Q1436.6,930.84,1404.64,924.7Z"/><path class="cls-14" d="M1530.31,1226.27q23,6.59,35.6,23.35,15.37,18.76,6,39.8-12.74,28.47-53.57,38.42-31.83,8-61.33-.69-23.66-6.87-36.15-22.11-14.75-18.47-5.35-39.52,12.73-28.46,52.61-39.59Q1500.17,1217.26,1530.31,1226.27Zm242.08-353.64L1892,952.13q-92.62,69.24-140,110.42-64.64,56.5-127.09,128.08l-84.36-42.18Z"/><path class="cls-17" d="M246.51,917.82l108-67.31Q372,983.42,392.71,1090.09l47.57-32.15L396,857.09l108-67.31q37.8,283.93,93.21,470.69L500.42,1332,459.9,1149.42q-16.06,10.92-48.79,33,19.45,82.1,36.64,138.78l-96.79,71.53Z"/><path class="cls-18" d="M708,883.44q-2,20.37-2.68,39.81l-0.92,38.12,102.9-41.32,10.06,93.24q-73.65,26.6-115.22,44.15-0.33,13.83,0,27.54l-0.47,26.89,121.12-39.69,13,125.74Q741,1222.68,600,1286.46l-3.92-492.7,216.74-71.49L825.7,847.86Q761.26,865.26,708,883.44Z"/><path class="cls-19" d="M904,758.95q106-33.2,173.81-34.07,91.51-1.16,91.64,62.57,0.48,91.52-112.91,185.16,9.81,25.65,80.69,161-34.67,33-104.7,96.92L958,1044.37l-0.68.16-0.87-.14q-15,89-22.11,164.29l-106.95,31.25q1.18-14.92,13.77-90.34Zm86.77,106q-5.81,23.13-10.26,46.23l-8.91,46.21A245.22,245.22,0,0,0,1017.95,925q26.15-23.37,34.69-44.51a23.9,23.9,0,0,0,3.24-11.57q-0.19-14.9-19.85-14.66Q1020.43,854.42,990.75,865Z"/><path class="cls-20" d="M1449,752.87q70.56,13.58,84.74,97.77,7.49,43.56-1.85,92.15-9,46.6-33.45,98.5-42.57,88.47-118.26,155.36-92.34,81.65-174.89,65.76-71.24-13.71-86.07-98-7.21-41.42,2-89.36,9.09-47.26,34.37-99.7,42.68-89.12,117.72-156.15Q1365.82,736.87,1449,752.87Zm-55.73,160.49q-36.62-7-86.09,45.56-39.72,41.38-60.41,84.34-10.61,22.81-14.32,42.12-5.26,27.31,4.73,47.17,11.59,22.26,38.89,27.5,37.27,7.17,74.79-26.34,30-26.67,48.83-67.23Q1422,1019,1424,969,1425.26,919.5,1393.31,913.36Z"/><path class="cls-21" d="M1519,1214.93q23,6.59,35.6,23.35,15.37,18.76,6,39.8-12.74,28.47-53.57,38.42-31.83,8-61.33-.69-23.66-6.87-36.15-22.11-14.75-18.47-5.35-39.52,12.73-28.46,52.61-39.59Q1488.83,1205.92,1519,1214.93Zm242.08-353.64,119.65,79.5q-92.62,69.24-140,110.42-64.64,56.5-127.09,128.08l-84.36-42.18Z"/></g></g></g></svg>